<?xml version="1.0" encoding="utf-8"?>
<!-- Generator: Adobe Illustrator 21.0.2, SVG Export Plug-In . SVG Version: 6.00 Build 0)  -->
<svg version="1.1" id="Layer_1" xmlns="http://www.w3.org/2000/svg" xmlns:xlink="http://www.w3.org/1999/xlink" x="0px" y="0px"
	 viewBox="0 0 20 20" style="enable-background:new 0 0 20 20;" xml:space="preserve">
<style type="text/css">
	.st0{fill:#FFFFFF;}
</style>
<path class="st0" d="M9.5,19c-0.1,0-0.2,0-0.2-0.1c-0.1-0.1-2.9-1.6-5.4-4.1c-0.2-0.2-0.2-0.5,0-0.7s0.5-0.2,0.7,0
	c2,2,4.2,3.3,4.9,3.8c0.7-0.4,2.9-1.8,4.9-3.8c0.2-0.2,0.5-0.2,0.7,0s0.2,0.5,0,0.7c-2.5,2.5-5.3,4-5.4,4.1C9.7,19,9.6,19,9.5,19z"
	/>
<path class="st0" d="M1.3,11c-0.2,0-0.4-0.1-0.5-0.3C0.3,9.5,0,8.4,0,7.2C0,4.4,2.4,2,5.2,2c1,0,2,0.4,2.9,1c0.5,0.4,1,0.9,1.3,1.4
	c0.3-0.5,0.8-1,1.3-1.4c0.9-0.7,2-1,2.9-1C16.6,2,19,4.4,19,7.2c0,1.1-0.3,2.3-0.8,3.5c-0.1,0.2-0.4,0.4-0.7,0.2s-0.4-0.4-0.2-0.7
	c0.5-1,0.7-2.1,0.7-3C18,4.9,16.1,3,13.8,3C12,3,10.4,4.4,10,5.7C9.9,5.9,9.7,6,9.5,6S9.1,5.9,9,5.7C8.6,4.4,7,3,5.2,3
	C2.9,3,1,4.9,1,7.3c0,1,0.2,2,0.7,3c0.1,0.2,0,0.5-0.2,0.7C1.4,11,1.3,11,1.3,11L1.3,11z"/>
<path class="st0" d="M10.5,15C10.5,15,10.5,15,10.5,15c-0.2,0-0.6-0.1-0.8-0.8L8.5,9.9l-0.8,3.3C7.6,13.8,7.2,14,7,14
	s-0.6,0-0.9-0.6l-0.6-1.2c0-0.1-0.1-0.1-0.1-0.1c0,0,0,0,0,0c-0.4,0.5-1.2,1-1.9,1h-1C2.2,13,2,12.8,2,12.5S2.2,12,2.5,12h1
	c0.4,0,0.9-0.3,1.1-0.5C4.8,11.2,5.1,11,5.5,11c0.4,0,0.7,0.3,0.9,0.7l0.4,0.9l0.9-3.8C7.9,8.1,8.3,8,8.5,8s0.6,0.1,0.8,0.8l1.3,4.6
	l1.2-3.6C11.9,9.1,12.3,9,12.5,9s0.6,0.1,0.8,0.7l0.7,1.7c0.1,0.3,0.6,0.6,0.9,0.6h1.5c0.3,0,0.5,0.2,0.5,0.5S16.8,13,16.5,13H15
	c-0.7,0-1.6-0.5-1.8-1.2l-0.6-1.4l-1.3,3.9C11.1,14.9,10.7,15,10.5,15L10.5,15z"/>
</svg>
